<svg xmlns="http://www.w3.org/2000/svg" xmlns:xlink="http://www.w3.org/1999/xlink" width="593" zoomAndPan="magnify" viewBox="0 0 444.75 96.749999" height="129" preserveAspectRatio="xMidYMid meet" version="1.0"><defs><g/><clipPath id="0305724eec"><path d="M 102 0 L 385 0 L 385 96.5 L 102 96.5 Z M 102 0 " clip-rule="nonzero"/></clipPath><clipPath id="ced88f6998"><path d="M 0.664062 0 L 282.417969 0 L 282.417969 96.5 L 0.664062 96.5 Z M 0.664062 0 " clip-rule="nonzero"/></clipPath><clipPath id="6430039b72"><path d="M 1 0 L 27 0 L 27 79 L 1 79 Z M 1 0 " clip-rule="nonzero"/></clipPath><clipPath id="25d71d63df"><rect x="0" width="283" y="0" height="97"/></clipPath><clipPath id="06860c7848"><rect x="0" width="283" y="0" height="97"/></clipPath></defs><g clip-path="url(#0305724eec)"><g transform="matrix(1, 0, 0, 1, 102, -0.000000000000000558)"><g clip-path="url(#06860c7848)"><g clip-path="url(#ced88f6998)"><g transform="matrix(1, 0, 0, 1, -0.000000000000042633, -0.000000000000000558)"><g clip-path="url(#25d71d63df)"><g clip-path="url(#6430039b72)"><g fill="#2d2e2f" fill-opacity="1"><g transform="translate(0.716588, 30.022513)"><g><path d="M 24.4375 44.765625 C 24.507812 44.765625 24.566406 44.753906 24.609375 44.734375 C 24.648438 44.710938 24.691406 44.703125 24.734375 44.703125 C 25.003906 44.703125 25.238281 44.800781 25.4375 45 C 25.632812 45.195312 25.734375 45.4375 25.734375 45.71875 C 25.734375 45.832031 25.675781 45.988281 25.5625 46.1875 C 25.125 46.820312 24.410156 47.265625 23.421875 47.515625 C 22.429688 47.773438 21.304688 47.90625 20.046875 47.90625 C 18.265625 47.90625 16.375 47.75 14.375 47.4375 C 12.382812 47.125 10.632812 46.882812 9.125 46.71875 C 8.925781 46.6875 8.726562 46.671875 8.53125 46.671875 C 8.34375 46.671875 8.148438 46.671875 7.953125 46.671875 C 7.472656 46.671875 7.003906 46.726562 6.546875 46.84375 C 6.097656 46.957031 5.65625 47.210938 5.21875 47.609375 C 4.738281 48.085938 4.164062 48.328125 3.5 48.328125 C 2.59375 48.328125 1.765625 47.953125 1.015625 47.203125 C 0.648438 46.847656 0.46875 46.53125 0.46875 46.25 C 0.46875 45.894531 0.742188 45.539062 1.296875 45.1875 C 1.460938 45.101562 1.625 45 1.78125 44.875 C 1.9375 44.757812 2.09375 44.6875 2.25 44.65625 C 2.84375 44.457031 3.335938 43.6875 3.734375 42.34375 C 4.128906 41 4.453125 39.296875 4.703125 37.234375 C 4.960938 35.179688 5.148438 32.976562 5.265625 30.625 C 5.390625 28.269531 5.484375 25.984375 5.546875 23.765625 C 5.609375 21.554688 5.640625 19.625 5.640625 17.96875 L 5.640625 15.296875 C 5.597656 14.390625 5.578125 13.441406 5.578125 12.453125 C 5.578125 11.460938 5.578125 10.472656 5.578125 9.484375 C 5.578125 6.003906 5.675781 2.425781 5.875 -1.25 C 6.070312 -4.925781 6.394531 -8.484375 6.84375 -11.921875 C 7.300781 -15.359375 7.925781 -18.441406 8.71875 -21.171875 C 9.507812 -23.898438 10.488281 -26.0625 11.65625 -27.65625 C 12.820312 -29.257812 14.210938 -30.0625 15.828125 -30.0625 C 17.171875 -30.0625 18.691406 -29.390625 20.390625 -28.046875 C 21.617188 -27.054688 22.640625 -25.625 23.453125 -23.75 C 24.265625 -21.875 24.875 -19.738281 25.28125 -17.34375 C 25.695312 -14.945312 25.90625 -12.445312 25.90625 -9.84375 C 25.90625 -7.15625 25.6875 -4.476562 25.25 -1.8125 C 24.820312 0.851562 24.171875 3.273438 23.296875 5.453125 C 23.023438 6.128906 22.726562 6.789062 22.40625 7.4375 C 22.09375 8.09375 21.660156 8.695312 21.109375 9.25 C 20.515625 9.84375 19.820312 10.140625 19.03125 10.140625 C 18.164062 10.140625 17.457031 9.765625 16.90625 9.015625 C 16.664062 8.691406 16.546875 8.4375 16.546875 8.25 C 16.546875 8.125 16.582031 7.984375 16.65625 7.828125 C 16.78125 7.628906 16.941406 7.53125 17.140625 7.53125 C 17.378906 7.53125 17.59375 7.628906 17.78125 7.828125 C 18.0625 8.023438 18.28125 8.125 18.4375 8.125 C 18.914062 8.125 19.367188 7.785156 19.796875 7.109375 C 20.234375 6.441406 20.609375 5.660156 20.921875 4.765625 C 21.242188 3.878906 21.460938 3.117188 21.578125 2.484375 C 21.941406 0.546875 22.238281 -1.546875 22.46875 -3.796875 C 22.707031 -6.046875 22.828125 -8.316406 22.828125 -10.609375 C 22.828125 -13.578125 22.578125 -16.429688 22.078125 -19.171875 C 21.585938 -21.921875 20.734375 -24.25 19.515625 -26.15625 C 18.953125 -27.0625 18.359375 -27.515625 17.734375 -27.515625 C 17.210938 -27.515625 16.617188 -27.175781 15.953125 -26.5 C 14.878906 -25.4375 13.96875 -23.863281 13.21875 -21.78125 C 12.46875 -19.707031 11.863281 -17.304688 11.40625 -14.578125 C 10.957031 -11.859375 10.601562 -8.984375 10.34375 -5.953125 C 10.09375 -2.929688 9.914062 0.046875 9.8125 2.984375 C 9.71875 5.929688 9.671875 8.648438 9.671875 11.140625 C 9.671875 12.609375 9.675781 13.960938 9.6875 15.203125 C 9.707031 16.453125 9.738281 17.53125 9.78125 18.4375 C 9.820312 19.382812 9.84375 20.300781 9.84375 21.1875 C 9.84375 22.082031 9.84375 22.925781 9.84375 23.71875 C 9.84375 27.789062 9.742188 31.128906 9.546875 33.734375 C 9.347656 36.347656 9.128906 38.394531 8.890625 39.875 C 8.648438 41.351562 8.429688 42.425781 8.234375 43.09375 C 8.046875 43.769531 7.953125 44.207031 7.953125 44.40625 C 7.953125 44.601562 8.207031 44.722656 8.71875 44.765625 L 8.828125 44.765625 C 10.566406 45.203125 12.128906 45.519531 13.515625 45.71875 C 14.898438 45.914062 16.164062 46.015625 17.3125 46.015625 C 18.613281 46.015625 19.828125 45.90625 20.953125 45.6875 C 22.085938 45.46875 23.25 45.160156 24.4375 44.765625 Z M 24.4375 44.765625 "/></g></g></g></g><g fill="#2d2e2f" fill-opacity="1"><g transform="translate(28.288661, 30.022513)"><g><path d="M 5.28125 6.578125 C 4.363281 7.367188 3.273438 7.765625 2.015625 7.765625 C 1.304688 7.765625 0.675781 7.628906 0.125 7.359375 C -0.15625 7.191406 -0.414062 7.007812 -0.65625 6.8125 C -0.894531 6.613281 -1.015625 6.359375 -1.015625 6.046875 C -1.015625 6.003906 -1.003906 5.953125 -0.984375 5.890625 C -0.960938 5.835938 -0.953125 5.789062 -0.953125 5.75 C -0.867188 5.351562 -0.695312 5.054688 -0.4375 4.859375 C -0.1875 4.660156 0.113281 4.539062 0.46875 4.5 C 0.664062 4.46875 0.875 4.429688 1.09375 4.390625 C 1.3125 4.347656 1.617188 4.304688 2.015625 4.265625 C 2.171875 4.222656 2.347656 4.191406 2.546875 4.171875 C 2.742188 4.160156 2.941406 4.15625 3.140625 4.15625 C 3.773438 4.15625 4.390625 4.289062 4.984375 4.5625 C 5.609375 4.882812 5.921875 5.222656 5.921875 5.578125 C 5.921875 5.890625 5.707031 6.222656 5.28125 6.578125 Z M 9.546875 25.203125 C 9.785156 24.054688 10.023438 23.484375 10.265625 23.484375 C 10.535156 23.484375 10.671875 23.957031 10.671875 24.90625 L 10.671875 25.375 C 10.554688 26.5625 10.390625 28.023438 10.171875 29.765625 C 9.953125 31.503906 9.664062 33.289062 9.3125 35.125 C 8.957031 36.96875 8.539062 38.679688 8.0625 40.265625 C 7.59375 41.847656 7.039062 43.070312 6.40625 43.9375 C 6.050781 44.445312 5.535156 44.703125 4.859375 44.703125 C 4.347656 44.703125 3.753906 44.503906 3.078125 44.109375 C 2.367188 43.597656 1.773438 42.75 1.296875 41.5625 C 0.828125 40.375 0.460938 38.976562 0.203125 37.375 C -0.046875 35.78125 -0.226562 34.125 -0.34375 32.40625 C -0.46875 30.6875 -0.53125 29.054688 -0.53125 27.515625 C -0.53125 24.785156 -0.429688 22.726562 -0.234375 21.34375 C -0.078125 20.082031 0.109375 18.75 0.328125 17.34375 C 0.546875 15.9375 0.832031 14.726562 1.1875 13.71875 C 1.539062 12.71875 1.992188 12.21875 2.546875 12.21875 C 2.984375 12.21875 3.476562 12.613281 4.03125 13.40625 C 4.269531 13.757812 4.4375 14.320312 4.53125 15.09375 C 4.632812 15.863281 4.6875 16.78125 4.6875 17.84375 C 4.6875 19.539062 4.601562 21.5 4.4375 23.71875 C 4.28125 25.9375 4.125 28.191406 3.96875 30.484375 C 3.8125 32.773438 3.734375 34.890625 3.734375 36.828125 C 3.734375 37.929688 3.769531 38.957031 3.84375 39.90625 C 3.925781 40.851562 4.066406 41.644531 4.265625 42.28125 C 4.390625 42.59375 4.566406 42.75 4.796875 42.75 C 4.960938 42.75 5.144531 42.648438 5.34375 42.453125 C 5.96875 41.742188 6.515625 40.644531 6.984375 39.15625 C 7.460938 37.675781 7.859375 36.046875 8.171875 34.265625 C 8.492188 32.492188 8.765625 30.785156 8.984375 29.140625 C 9.203125 27.503906 9.390625 26.191406 9.546875 25.203125 Z M 9.546875 25.203125 "/></g></g></g><g fill="#2d2e2f" fill-opacity="1"><g transform="translate(37.775826, 30.022513)"><g><path d="M 9.609375 41.984375 C 10.472656 41.390625 11.347656 40.367188 12.234375 38.921875 C 13.128906 37.484375 13.960938 35.90625 14.734375 34.1875 C 15.503906 32.46875 16.109375 30.894531 16.546875 29.46875 C 16.660156 29.195312 16.816406 29.0625 17.015625 29.0625 C 17.210938 29.0625 17.3125 29.160156 17.3125 29.359375 L 17.3125 29.40625 C 17.238281 30.320312 16.992188 31.429688 16.578125 32.734375 C 16.160156 34.035156 15.644531 35.378906 15.03125 36.765625 C 14.414062 38.148438 13.757812 39.441406 13.0625 40.640625 C 12.375 41.847656 11.691406 42.828125 11.015625 43.578125 C 10.347656 44.328125 9.738281 44.722656 9.1875 44.765625 L 8.953125 44.765625 C 7.296875 44.765625 5.863281 44.082031 4.65625 42.71875 C 3.445312 41.351562 2.445312 39.484375 1.65625 37.109375 C 0.863281 34.742188 0.28125 32.007812 -0.09375 28.90625 C -0.46875 25.800781 -0.65625 22.507812 -0.65625 19.03125 C -0.65625 15.675781 -0.484375 12.25 -0.140625 8.75 C 0.191406 5.25 0.671875 1.820312 1.296875 -1.53125 C 1.929688 -4.894531 2.710938 -8.050781 3.640625 -11 C 4.578125 -13.945312 5.632812 -16.554688 6.8125 -18.828125 C 8 -21.097656 9.328125 -22.882812 10.796875 -24.1875 C 11.703125 -25.0625 12.726562 -25.5 13.875 -25.5 C 14.707031 -25.5 15.46875 -25.25 16.15625 -24.75 C 16.851562 -24.257812 17.335938 -23.519531 17.609375 -22.53125 C 18.203125 -20.632812 18.5 -18.476562 18.5 -16.0625 C 18.5 -13.144531 18.148438 -10.003906 17.453125 -6.640625 C 16.765625 -3.273438 15.867188 0.113281 14.765625 3.53125 C 13.660156 6.945312 12.484375 10.207031 11.234375 13.3125 C 9.992188 16.414062 8.816406 19.179688 7.703125 21.609375 C 6.597656 24.046875 5.695312 25.972656 5 27.390625 C 4.3125 28.816406 3.96875 29.550781 3.96875 29.59375 C 4.164062 31.09375 4.421875 32.570312 4.734375 34.03125 C 5.054688 35.5 5.472656 36.941406 5.984375 38.359375 C 6.421875 39.546875 6.976562 40.613281 7.65625 41.5625 C 7.96875 42.039062 8.34375 42.28125 8.78125 42.28125 C 9.007812 42.28125 9.285156 42.179688 9.609375 41.984375 Z M 3.328125 21.765625 C 3.328125 21.878906 3.34375 21.992188 3.375 22.109375 C 3.414062 22.234375 3.515625 22.316406 3.671875 22.359375 C 3.867188 22.203125 4.289062 21.441406 4.9375 20.078125 C 5.59375 18.710938 6.375 16.910156 7.28125 14.671875 C 8.195312 12.441406 9.140625 9.929688 10.109375 7.140625 C 11.078125 4.359375 11.972656 1.476562 12.796875 -1.5 C 13.628906 -4.488281 14.300781 -7.425781 14.8125 -10.3125 C 15.332031 -13.195312 15.59375 -15.828125 15.59375 -18.203125 C 15.59375 -20.140625 15.394531 -21.78125 15 -23.125 C 13.8125 -22.457031 12.65625 -21.210938 11.53125 -19.390625 C 10.40625 -17.566406 9.335938 -15.300781 8.328125 -12.59375 C 7.316406 -9.882812 6.4375 -6.847656 5.6875 -3.484375 C 4.9375 -0.128906 4.34375 3.429688 3.90625 7.203125 C 3.476562 10.984375 3.265625 14.828125 3.265625 18.734375 C 3.265625 19.253906 3.265625 19.757812 3.265625 20.25 C 3.265625 20.738281 3.285156 21.242188 3.328125 21.765625 Z M 3.328125 21.765625 "/></g></g></g><g fill="#2d2e2f" fill-opacity="1"><g transform="translate(54.022597, 30.022513)"><g><path d="M 5.28125 6.578125 C 4.363281 7.367188 3.273438 7.765625 2.015625 7.765625 C 1.304688 7.765625 0.675781 7.628906 0.125 7.359375 C -0.15625 7.191406 -0.414062 7.007812 -0.65625 6.8125 C -0.894531 6.613281 -1.015625 6.359375 -1.015625 6.046875 C -1.015625 6.003906 -1.003906 5.953125 -0.984375 5.890625 C -0.960938 5.835938 -0.953125 5.789062 -0.953125 5.75 C -0.867188 5.351562 -0.695312 5.054688 -0.4375 4.859375 C -0.1875 4.660156 0.113281 4.539062 0.46875 4.5 C 0.664062 4.46875 0.875 4.429688 1.09375 4.390625 C 1.3125 4.347656 1.617188 4.304688 2.015625 4.265625 C 2.171875 4.222656 2.347656 4.191406 2.546875 4.171875 C 2.742188 4.160156 2.941406 4.15625 3.140625 4.15625 C 3.773438 4.15625 4.390625 4.289062 4.984375 4.5625 C 5.609375 4.882812 5.921875 5.222656 5.921875 5.578125 C 5.921875 5.890625 5.707031 6.222656 5.28125 6.578125 Z M 9.546875 25.203125 C 9.785156 24.054688 10.023438 23.484375 10.265625 23.484375 C 10.535156 23.484375 10.671875 23.957031 10.671875 24.90625 L 10.671875 25.375 C 10.554688 26.5625 10.390625 28.023438 10.171875 29.765625 C 9.953125 31.503906 9.664062 33.289062 9.3125 35.125 C 8.957031 36.96875 8.539062 38.679688 8.0625 40.265625 C 7.59375 41.847656 7.039062 43.070312 6.40625 43.9375 C 6.050781 44.445312 5.535156 44.703125 4.859375 44.703125 C 4.347656 44.703125 3.753906 44.503906 3.078125 44.109375 C 2.367188 43.597656 1.773438 42.75 1.296875 41.5625 C 0.828125 40.375 0.460938 38.976562 0.203125 37.375 C -0.046875 35.78125 -0.226562 34.125 -0.34375 32.40625 C -0.46875 30.6875 -0.53125 29.054688 -0.53125 27.515625 C -0.53125 24.785156 -0.429688 22.726562 -0.234375 21.34375 C -0.078125 20.082031 0.109375 18.75 0.328125 17.34375 C 0.546875 15.9375 0.832031 14.726562 1.1875 13.71875 C 1.539062 12.71875 1.992188 12.21875 2.546875 12.21875 C 2.984375 12.21875 3.476562 12.613281 4.03125 13.40625 C 4.269531 13.757812 4.4375 14.320312 4.53125 15.09375 C 4.632812 15.863281 4.6875 16.78125 4.6875 17.84375 C 4.6875 19.539062 4.601562 21.5 4.4375 23.71875 C 4.28125 25.9375 4.125 28.191406 3.96875 30.484375 C 3.8125 32.773438 3.734375 34.890625 3.734375 36.828125 C 3.734375 37.929688 3.769531 38.957031 3.84375 39.90625 C 3.925781 40.851562 4.066406 41.644531 4.265625 42.28125 C 4.390625 42.59375 4.566406 42.75 4.796875 42.75 C 4.960938 42.75 5.144531 42.648438 5.34375 42.453125 C 5.96875 41.742188 6.515625 40.644531 6.984375 39.15625 C 7.460938 37.675781 7.859375 36.046875 8.171875 34.265625 C 8.492188 32.492188 8.765625 30.785156 8.984375 29.140625 C 9.203125 27.503906 9.390625 26.191406 9.546875 25.203125 Z M 9.546875 25.203125 "/></g></g></g><g fill="#2d2e2f" fill-opacity="1"><g transform="translate(63.509762, 30.022513)"><g><path d="M 21.765625 25.4375 C 21.921875 24.25 22.15625 23.65625 22.46875 23.65625 C 22.707031 23.65625 22.828125 24.09375 22.828125 24.96875 L 22.828125 25.5625 C 22.742188 26.738281 22.59375 28.195312 22.375 29.9375 C 22.164062 31.675781 21.878906 33.460938 21.515625 35.296875 C 21.160156 37.140625 20.742188 38.851562 20.265625 40.4375 C 19.796875 42.019531 19.25 43.242188 18.625 44.109375 C 18.257812 44.628906 17.742188 44.890625 17.078125 44.890625 C 16.566406 44.890625 15.972656 44.691406 15.296875 44.296875 C 13.359375 42.992188 12.351562 39.296875 12.28125 33.203125 C 12.195312 33.523438 12.054688 34.117188 11.859375 34.984375 C 11.660156 35.859375 11.394531 36.847656 11.0625 37.953125 C 10.726562 39.054688 10.320312 40.128906 9.84375 41.171875 C 9.363281 42.222656 8.796875 43.09375 8.140625 43.78125 C 7.492188 44.476562 6.753906 44.828125 5.921875 44.828125 C 5.335938 44.828125 4.726562 44.628906 4.09375 44.234375 C 2.789062 43.398438 1.734375 42.234375 0.921875 40.734375 C 0.109375 39.234375 -0.484375 37.515625 -0.859375 35.578125 C -1.234375 33.640625 -1.421875 31.625 -1.421875 29.53125 C -1.421875 27.3125 -1.234375 25.101562 -0.859375 22.90625 C -0.484375 20.71875 0.046875 18.703125 0.734375 16.859375 C 1.429688 15.023438 2.253906 13.535156 3.203125 12.390625 C 4.503906 10.773438 6.101562 9.96875 8 9.96875 C 9.03125 9.96875 10.03125 10.28125 11 10.90625 C 11.96875 11.539062 12.726562 12.53125 13.28125 13.875 C 13.394531 13.164062 13.867188 12.8125 14.703125 12.8125 C 15.335938 12.8125 15.851562 13.085938 16.25 13.640625 C 16.488281 13.992188 16.65625 14.554688 16.75 15.328125 C 16.851562 16.097656 16.90625 17.015625 16.90625 18.078125 C 16.90625 19.742188 16.820312 21.679688 16.65625 23.890625 C 16.5 26.109375 16.34375 28.363281 16.1875 30.65625 C 16.03125 32.945312 15.953125 35.0625 15.953125 37 C 15.953125 38.101562 15.988281 39.128906 16.0625 40.078125 C 16.144531 41.023438 16.285156 41.816406 16.484375 42.453125 C 16.597656 42.773438 16.753906 42.9375 16.953125 42.9375 C 17.148438 42.9375 17.347656 42.835938 17.546875 42.640625 C 18.179688 41.921875 18.734375 40.820312 19.203125 39.34375 C 19.679688 37.863281 20.078125 36.234375 20.390625 34.453125 C 20.710938 32.671875 20.984375 30.96875 21.203125 29.34375 C 21.421875 27.726562 21.609375 26.425781 21.765625 25.4375 Z M 11.5625 21.765625 C 11.675781 20.972656 11.734375 20.222656 11.734375 19.515625 C 11.734375 18.554688 11.65625 17.613281 11.5 16.6875 C 11.34375 15.757812 11.125 14.863281 10.84375 14 C 10.457031 12.570312 9.96875 11.859375 9.375 11.859375 C 8.851562 11.859375 8.179688 12.375 7.359375 13.40625 C 6.398438 14.550781 5.59375 16.019531 4.9375 17.8125 C 4.289062 19.613281 3.8125 21.570312 3.5 23.6875 C 3.1875 25.800781 3.03125 27.925781 3.03125 30.0625 C 3.03125 32.632812 3.265625 35.046875 3.734375 37.296875 C 4.210938 39.546875 4.882812 41.304688 5.75 42.578125 C 6.65625 41.628906 7.441406 40.265625 8.109375 38.484375 C 8.785156 36.703125 9.351562 34.773438 9.8125 32.703125 C 10.269531 30.628906 10.632812 28.613281 10.90625 26.65625 C 11.1875 24.695312 11.40625 23.066406 11.5625 21.765625 Z M 11.5625 21.765625 "/></g></g></g><g fill="#2d2e2f" fill-opacity="1"><g transform="translate(85.745305, 30.022513)"><g/></g></g><g fill="#2d2e2f" fill-opacity="1"><g transform="translate(100.568994, 30.022513)"><g><path d="M 21.578125 22.953125 C 22.722656 22.203125 23.757812 20.75 24.6875 18.59375 C 25.625 16.4375 26.425781 13.851562 27.09375 10.84375 C 27.769531 7.84375 28.285156 4.671875 28.640625 1.328125 C 28.992188 -2.003906 29.171875 -5.253906 29.171875 -8.421875 C 29.171875 -11.460938 28.984375 -14.25 28.609375 -16.78125 C 28.234375 -19.3125 27.671875 -21.328125 26.921875 -22.828125 C 26.171875 -24.328125 25.179688 -25.078125 23.953125 -25.078125 C 23.160156 -25.078125 22.269531 -24.703125 21.28125 -23.953125 C 19.3125 -22.453125 17.535156 -20.484375 15.953125 -18.046875 C 14.367188 -15.617188 12.984375 -12.851562 11.796875 -9.75 C 10.609375 -6.644531 9.609375 -3.351562 8.796875 0.125 C 7.992188 3.601562 7.394531 7.148438 7 10.765625 C 6.601562 14.378906 6.40625 17.90625 6.40625 21.34375 C 6.40625 24.945312 6.628906 28.335938 7.078125 31.515625 C 7.535156 34.703125 8.207031 37.507812 9.09375 39.9375 C 9.988281 42.363281 11.109375 44.269531 12.453125 45.65625 C 13.796875 47.039062 15.359375 47.734375 17.140625 47.734375 C 17.609375 47.734375 18.101562 47.675781 18.625 47.5625 C 20.519531 47.125 22.164062 46.191406 23.5625 44.765625 C 24.96875 43.347656 26.203125 41.707031 27.265625 39.84375 C 28.335938 37.988281 29.328125 36.210938 30.234375 34.515625 C 30.359375 34.234375 30.554688 34.09375 30.828125 34.09375 C 31.265625 34.09375 31.484375 34.289062 31.484375 34.6875 C 31.484375 34.726562 31.472656 34.765625 31.453125 34.796875 C 31.429688 34.835938 31.421875 34.878906 31.421875 34.921875 C 30.796875 36.742188 30.003906 38.582031 29.046875 40.4375 C 28.097656 42.300781 27 44.019531 25.75 45.59375 C 24.507812 47.175781 23.128906 48.453125 21.609375 49.421875 C 20.085938 50.390625 18.421875 50.875 16.609375 50.875 C 15.066406 50.875 13.523438 50.5 11.984375 49.75 C 9.492188 48.320312 7.4375 46.113281 5.8125 43.125 C 4.1875 40.144531 2.976562 36.640625 2.1875 32.609375 C 1.40625 28.578125 1.015625 24.289062 1.015625 19.75 C 1.015625 15.351562 1.367188 10.910156 2.078125 6.421875 C 2.785156 1.941406 3.84375 -2.359375 5.25 -6.484375 C 6.65625 -10.617188 8.394531 -14.347656 10.46875 -17.671875 C 12.539062 -20.992188 14.921875 -23.660156 17.609375 -25.671875 C 19.035156 -26.742188 20.597656 -27.28125 22.296875 -27.28125 C 23.285156 -27.28125 24.265625 -27.09375 25.234375 -26.71875 C 26.203125 -26.34375 27.0625 -25.773438 27.8125 -25.015625 C 29.113281 -23.796875 30.175781 -22.175781 31 -20.15625 C 31.832031 -18.144531 32.4375 -15.882812 32.8125 -13.375 C 33.195312 -10.863281 33.390625 -8.242188 33.390625 -5.515625 C 33.390625 -2.585938 33.191406 0.34375 32.796875 3.28125 C 32.398438 6.226562 31.84375 9.015625 31.125 11.640625 C 30.414062 14.273438 29.585938 16.609375 28.640625 18.640625 C 27.691406 20.679688 26.644531 22.253906 25.5 23.359375 C 25.019531 23.992188 24.441406 24.476562 23.765625 24.8125 C 23.097656 25.144531 22.410156 25.3125 21.703125 25.3125 C 20.953125 25.3125 20.226562 25.125 19.53125 24.75 C 18.84375 24.375 18.28125 23.8125 17.84375 23.0625 C 17.375 22.238281 17.039062 21.242188 16.84375 20.078125 C 16.644531 18.910156 16.546875 17.65625 16.546875 16.3125 C 16.546875 14.445312 16.703125 12.535156 17.015625 10.578125 C 17.335938 8.628906 17.765625 6.8125 18.296875 5.125 C 18.828125 3.445312 19.40625 2.09375 20.03125 1.0625 C 20.664062 0.0390625 21.300781 -0.46875 21.9375 -0.46875 L 22.0625 -0.46875 C 22.457031 -0.4375 22.789062 -0.191406 23.0625 0.265625 C 23.34375 0.722656 23.484375 1.285156 23.484375 1.953125 C 23.484375 2.546875 23.34375 3.164062 23.0625 3.8125 C 22.789062 4.46875 22.316406 5.09375 21.640625 5.6875 C 20.773438 6.320312 20.125 7.566406 19.6875 9.421875 C 19.25 11.285156 19.03125 13.207031 19.03125 15.1875 C 19.03125 17.039062 19.238281 18.738281 19.65625 20.28125 C 20.070312 21.820312 20.710938 22.710938 21.578125 22.953125 Z M 21.578125 22.953125 "/></g></g></g><g fill="#2d2e2f" fill-opacity="1"><g transform="translate(135.84939, 30.022513)"><g><path d="M 18.625 31.25 C 19.289062 30.65625 19.890625 29.941406 20.421875 29.109375 C 20.960938 28.285156 21.4375 27.46875 21.84375 26.65625 C 22.257812 25.84375 22.613281 25.171875 22.90625 24.640625 C 23.207031 24.109375 23.4375 23.84375 23.59375 23.84375 C 23.789062 23.84375 23.890625 24.019531 23.890625 24.375 C 23.890625 24.800781 23.734375 25.441406 23.421875 26.296875 C 23.109375 27.148438 22.679688 28.066406 22.140625 29.046875 C 21.609375 30.035156 21.023438 30.972656 20.390625 31.859375 C 19.765625 32.753906 19.132812 33.476562 18.5 34.03125 C 18.257812 34.15625 18.039062 34.640625 17.84375 35.484375 C 17.644531 36.335938 17.394531 37.375 17.09375 38.59375 C 16.800781 39.820312 16.390625 41.066406 15.859375 42.328125 C 15.328125 43.597656 14.585938 44.726562 13.640625 45.71875 C 12.734375 46.625 11.742188 47.078125 10.671875 47.078125 C 10.003906 47.078125 9.3125 46.941406 8.59375 46.671875 C 7.332031 46.234375 6.316406 45.359375 5.546875 44.046875 C 4.773438 42.742188 4.191406 41.265625 3.796875 39.609375 C 3.398438 37.953125 3.125 36.390625 2.96875 34.921875 C 2.925781 34.609375 2.828125 34.191406 2.671875 33.671875 C 2.515625 33.160156 2.273438 32.785156 1.953125 32.546875 C 0.960938 31.640625 0.210938 30.4375 -0.296875 28.9375 C -0.804688 27.4375 -1.0625 25.835938 -1.0625 24.140625 C -1.0625 22.273438 -0.765625 20.40625 -0.171875 18.53125 C 0.421875 16.65625 1.269531 15.023438 2.375 13.640625 C 4.15625 11.503906 6.191406 10.4375 8.484375 10.4375 C 10.691406 10.4375 12.6875 11.425781 14.46875 13.40625 C 15.695312 14.75 16.625 16.25 17.25 17.90625 C 17.882812 19.5625 18.320312 21.207031 18.5625 22.84375 C 18.800781 24.488281 18.921875 25.984375 18.921875 27.328125 C 18.921875 29.234375 18.820312 30.539062 18.625 31.25 Z M 3.140625 29.59375 C 3.179688 29.113281 3.210938 28.644531 3.234375 28.1875 C 3.253906 27.738281 3.285156 27.273438 3.328125 26.796875 C 3.328125 26.128906 3.394531 25.46875 3.53125 24.8125 C 3.664062 24.164062 3.851562 23.523438 4.09375 22.890625 C 4.164062 22.648438 4.257812 22.410156 4.375 22.171875 C 4.5 21.941406 4.703125 21.828125 4.984375 21.828125 C 5.773438 21.898438 6.226562 22.289062 6.34375 23 C 6.425781 23.28125 6.46875 23.554688 6.46875 23.828125 C 6.46875 24.109375 6.46875 24.410156 6.46875 24.734375 L 6.46875 32.734375 C 6.46875 33.640625 6.898438 34.15625 7.765625 34.28125 C 8.554688 34.394531 9.304688 34.453125 10.015625 34.453125 C 11.203125 34.453125 12.410156 34.273438 13.640625 33.921875 C 14.347656 33.679688 14.765625 33.1875 14.890625 32.4375 C 15.003906 31.488281 15.097656 30.53125 15.171875 29.5625 C 15.253906 28.59375 15.296875 27.613281 15.296875 26.625 C 15.296875 25.59375 15.238281 24.546875 15.125 23.484375 C 15 22.097656 14.785156 20.710938 14.484375 19.328125 C 14.191406 17.941406 13.710938 16.617188 13.046875 15.359375 C 12.609375 14.453125 12.148438 13.75 11.671875 13.25 C 11.203125 12.757812 10.648438 12.515625 10.015625 12.515625 C 9.148438 12.515625 8.023438 13.066406 6.640625 14.171875 C 5.691406 14.921875 4.867188 15.925781 4.171875 17.1875 C 3.484375 18.457031 2.953125 19.800781 2.578125 21.21875 C 2.203125 22.644531 2.015625 24.007812 2.015625 25.3125 C 2.015625 26.1875 2.101562 27 2.28125 27.75 C 2.457031 28.5 2.742188 29.113281 3.140625 29.59375 Z M 6.765625 35.640625 C 6.835938 37.097656 6.984375 38.476562 7.203125 39.78125 C 7.421875 41.09375 7.785156 42.378906 8.296875 43.640625 C 8.648438 44.472656 8.988281 44.890625 9.3125 44.890625 C 9.550781 44.890625 9.925781 44.628906 10.4375 44.109375 C 11.5 42.960938 12.296875 41.6875 12.828125 40.28125 C 13.367188 38.882812 13.835938 37.394531 14.234375 35.8125 C 13.046875 36.050781 11.878906 36.171875 10.734375 36.171875 C 9.460938 36.171875 8.140625 35.992188 6.765625 35.640625 Z M 6.765625 35.640625 "/></g></g></g><g fill="#2d2e2f" fill-opacity="1"><g transform="translate(159.211532, 30.022513)"><g><path d="M 26.328125 29.40625 L 26.328125 29.46875 C 26.015625 30.851562 25.5625 32.441406 24.96875 34.234375 C 24.375 36.035156 23.691406 37.765625 22.921875 39.421875 C 22.148438 41.085938 21.347656 42.460938 20.515625 43.546875 C 19.679688 44.640625 18.851562 45.1875 18.03125 45.1875 C 17.707031 45.1875 17.390625 45.085938 17.078125 44.890625 C 16.285156 44.367188 15.671875 43.492188 15.234375 42.265625 C 14.804688 41.046875 14.5 39.585938 14.3125 37.890625 C 14.132812 36.191406 14.046875 34.429688 14.046875 32.609375 C 14.046875 30.597656 14.113281 28.601562 14.25 26.625 C 14.394531 24.644531 14.546875 22.894531 14.703125 21.375 C 14.859375 19.851562 14.957031 18.738281 15 18.03125 C 15 17.945312 15.007812 17.875 15.03125 17.8125 C 15.050781 17.757812 15.0625 17.710938 15.0625 17.671875 C 15.0625 17.429688 14.984375 17.253906 14.828125 17.140625 C 14.347656 17.296875 13.867188 18.003906 13.390625 19.265625 C 12.921875 20.535156 12.445312 22.164062 11.96875 24.15625 C 11.5 26.15625 11.003906 28.28125 10.484375 30.53125 C 9.972656 32.789062 9.441406 34.992188 8.890625 37.140625 C 8.335938 39.296875 7.765625 41.1875 7.171875 42.8125 C 6.929688 43.445312 6.582031 43.910156 6.125 44.203125 C 5.675781 44.503906 5.175781 44.65625 4.625 44.65625 C 4.070312 44.65625 3.535156 44.492188 3.015625 44.171875 C 2.503906 43.859375 2.128906 43.425781 1.890625 42.875 C 1.179688 41.132812 0.695312 38.890625 0.4375 36.140625 C 0.1875 33.390625 0.0625 30.570312 0.0625 27.6875 C 0.0625 25.039062 0.128906 22.539062 0.265625 20.1875 C 0.398438 17.832031 0.535156 15.894531 0.671875 14.375 C 0.816406 12.851562 0.910156 12.035156 0.953125 11.921875 C 1.023438 11.523438 1.21875 11.238281 1.53125 11.0625 C 1.851562 10.882812 2.210938 10.796875 2.609375 10.796875 C 3.242188 10.796875 3.847656 10.972656 4.421875 11.328125 C 4.992188 11.679688 5.300781 12.132812 5.34375 12.6875 L 5.34375 13.703125 C 5.34375 14.722656 5.289062 16.082031 5.1875 17.78125 C 5.09375 19.488281 4.972656 21.359375 4.828125 23.390625 C 4.691406 25.429688 4.570312 27.5 4.46875 29.59375 C 4.375 31.6875 4.328125 33.625 4.328125 35.40625 C 4.328125 37.65625 4.445312 39.472656 4.6875 40.859375 L 4.75 40.859375 C 4.945312 40.859375 5.191406 40.34375 5.484375 39.3125 C 5.773438 38.28125 6.128906 36.925781 6.546875 35.25 C 6.960938 33.570312 7.40625 31.722656 7.875 29.703125 C 8.351562 27.691406 8.890625 25.675781 9.484375 23.65625 C 10.078125 21.644531 10.707031 19.796875 11.375 18.109375 C 12.050781 16.429688 12.773438 15.078125 13.546875 14.046875 C 14.316406 13.023438 15.117188 12.515625 15.953125 12.515625 C 16.148438 12.515625 16.304688 12.535156 16.421875 12.578125 C 17.140625 12.773438 17.773438 13.195312 18.328125 13.84375 C 18.878906 14.5 19.191406 15.222656 19.265625 16.015625 C 19.304688 16.171875 19.328125 16.347656 19.328125 16.546875 C 19.328125 16.742188 19.328125 16.960938 19.328125 17.203125 C 19.328125 18.378906 19.238281 19.914062 19.0625 21.8125 C 18.882812 23.71875 18.675781 25.765625 18.4375 27.953125 C 18.195312 30.148438 17.988281 32.285156 17.8125 34.359375 C 17.632812 36.429688 17.546875 38.222656 17.546875 39.734375 C 17.546875 40.796875 17.613281 41.660156 17.75 42.328125 C 17.894531 43.003906 18.101562 43.382812 18.375 43.46875 L 18.4375 43.46875 C 18.789062 43.46875 19.285156 42.953125 19.921875 41.921875 C 20.554688 40.890625 21.238281 39.601562 21.96875 38.0625 C 22.695312 36.519531 23.382812 34.945312 24.03125 33.34375 C 24.6875 31.75 25.210938 30.378906 25.609375 29.234375 C 25.609375 29.117188 25.691406 29.0625 25.859375 29.0625 C 26.171875 29.0625 26.328125 29.175781 26.328125 29.40625 Z M 26.328125 29.40625 "/></g></g></g><g fill="#2d2e2f" fill-opacity="1"><g transform="translate(184.115343, 30.022513)"><g><path d="M 13.515625 40.921875 C 13.441406 41.867188 12.832031 42.785156 11.6875 43.671875 C 10.539062 44.554688 9.113281 45.019531 7.40625 45.0625 L 7.234375 45.0625 C 5.972656 45.0625 4.835938 44.765625 3.828125 44.171875 C 2.816406 43.578125 2.015625 42.769531 1.421875 41.75 C 1.179688 41.3125 1.0625 40.914062 1.0625 40.5625 C 1.0625 39.882812 1.359375 39.445312 1.953125 39.25 L 2.140625 39.25 C 2.410156 39.25 2.632812 39.425781 2.8125 39.78125 C 2.988281 40.144531 3.222656 40.5625 3.515625 41.03125 C 3.816406 41.507812 4.234375 41.925781 4.765625 42.28125 C 5.304688 42.632812 6.050781 42.8125 7 42.8125 L 7.59375 42.8125 C 8.5 42.726562 9.175781 42.390625 9.625 41.796875 C 10.082031 41.210938 10.3125 40.5625 10.3125 39.84375 C 10.3125 39.332031 10.210938 38.828125 10.015625 38.328125 C 9.816406 37.835938 9.503906 37.414062 9.078125 37.0625 C 8.359375 36.382812 7.4375 35.671875 6.3125 34.921875 C 5.1875 34.171875 4.066406 33.269531 2.953125 32.21875 C 1.847656 31.175781 0.910156 29.910156 0.140625 28.421875 C -0.628906 26.941406 -1.015625 25.175781 -1.015625 23.125 C -1.015625 22.332031 -0.953125 21.503906 -0.828125 20.640625 C -0.628906 19.566406 -0.320312 18.414062 0.09375 17.1875 C 0.507812 15.96875 1.050781 14.8125 1.71875 13.71875 C 2.394531 12.632812 3.164062 11.738281 4.03125 11.03125 C 4.90625 10.320312 5.851562 9.96875 6.875 9.96875 L 7 9.96875 C 7.90625 10 8.703125 10.332031 9.390625 10.96875 C 10.085938 11.601562 10.679688 12.40625 11.171875 13.375 C 11.671875 14.34375 12.035156 15.335938 12.265625 16.359375 C 12.503906 17.390625 12.625 18.300781 12.625 19.09375 C 12.625 20.195312 12.390625 20.847656 11.921875 21.046875 C 11.835938 21.085938 11.695312 21.109375 11.5 21.109375 C 11.03125 21.109375 10.644531 20.832031 10.34375 20.28125 C 10.050781 19.726562 9.804688 19.046875 9.609375 18.234375 C 9.410156 17.421875 9.210938 16.609375 9.015625 15.796875 C 8.816406 14.992188 8.554688 14.3125 8.234375 13.75 C 7.921875 13.195312 7.507812 12.90625 7 12.875 L 6.9375 12.875 C 6.1875 12.875 5.539062 13.351562 5 14.3125 C 4.46875 15.28125 4.054688 16.523438 3.765625 18.046875 C 3.472656 19.578125 3.304688 21.210938 3.265625 22.953125 L 3.265625 23.359375 C 3.265625 25.847656 3.609375 27.863281 4.296875 29.40625 C 4.992188 30.945312 5.851562 32.191406 6.875 33.140625 C 7.90625 34.085938 8.921875 34.898438 9.921875 35.578125 C 10.929688 36.253906 11.78125 36.957031 12.46875 37.6875 C 13.164062 38.414062 13.515625 39.332031 13.515625 40.4375 Z M 13.515625 40.921875 "/></g></g></g><g fill="#2d2e2f" fill-opacity="1"><g transform="translate(200.302818, 30.022513)"><g><path d="M 22.46875 28.40625 C 22.59375 28.40625 22.65625 28.660156 22.65625 29.171875 C 22.65625 29.804688 22.554688 30.722656 22.359375 31.921875 C 22.160156 33.128906 21.890625 34.4375 21.546875 35.84375 C 21.210938 37.25 20.804688 38.582031 20.328125 39.84375 C 19.859375 41.113281 19.335938 42.148438 18.765625 42.953125 C 18.191406 43.765625 17.585938 44.171875 16.953125 44.171875 C 16.203125 44.171875 15.472656 43.476562 14.765625 42.09375 C 14.367188 41.269531 14.007812 40.273438 13.6875 39.109375 C 13.375 37.941406 13.117188 36.785156 12.921875 35.640625 C 12.722656 34.492188 12.566406 33.535156 12.453125 32.765625 C 12.335938 31.992188 12.28125 31.609375 12.28125 31.609375 C 12.082031 31.960938 11.84375 32.734375 11.5625 33.921875 C 11.28125 35.109375 10.929688 36.429688 10.515625 37.890625 C 10.109375 39.347656 9.585938 40.734375 8.953125 42.046875 C 8.117188 43.816406 7.03125 44.703125 5.6875 44.703125 C 4.539062 44.703125 3.457031 43.992188 2.4375 42.578125 C 1.84375 41.742188 1.347656 40.554688 0.953125 39.015625 C 0.554688 37.472656 0.226562 35.710938 -0.03125 33.734375 C -0.289062 31.765625 -0.476562 29.710938 -0.59375 27.578125 C -0.707031 25.441406 -0.765625 23.382812 -0.765625 21.40625 C -0.765625 19.46875 -0.707031 17.6875 -0.59375 16.0625 C -0.476562 14.445312 -0.335938 13.1875 -0.171875 12.28125 C -0.015625 11.5625 0.304688 11.0625 0.796875 10.78125 C 1.296875 10.507812 1.800781 10.375 2.3125 10.375 C 2.90625 10.375 3.4375 10.492188 3.90625 10.734375 C 4.382812 10.972656 4.625 11.25 4.625 11.5625 L 4.625 11.6875 C 4.539062 12.113281 4.429688 12.96875 4.296875 14.25 C 4.160156 15.539062 4.03125 17.101562 3.90625 18.9375 C 3.789062 20.78125 3.691406 22.738281 3.609375 24.8125 C 3.535156 26.882812 3.5 28.929688 3.5 30.953125 C 3.5 32.972656 3.554688 34.84375 3.671875 36.5625 C 3.796875 38.28125 3.992188 39.648438 4.265625 40.671875 C 4.546875 41.703125 4.90625 42.238281 5.34375 42.28125 L 5.390625 42.28125 C 6.179688 42.28125 6.882812 41.707031 7.5 40.5625 C 8.113281 39.414062 8.644531 37.890625 9.09375 35.984375 C 9.550781 34.085938 9.9375 32.003906 10.25 29.734375 C 10.570312 27.460938 10.847656 25.171875 11.078125 22.859375 C 11.316406 20.546875 11.503906 18.410156 11.640625 16.453125 C 11.785156 14.492188 11.914062 12.921875 12.03125 11.734375 C 12.070312 11.335938 12.238281 11.050781 12.53125 10.875 C 12.832031 10.695312 13.179688 10.609375 13.578125 10.609375 C 14.128906 10.609375 14.640625 10.765625 15.109375 11.078125 C 15.585938 11.398438 15.828125 11.859375 15.828125 12.453125 L 15.828125 12.578125 C 15.828125 12.929688 15.804688 13.78125 15.765625 15.125 C 15.734375 16.46875 15.695312 18.078125 15.65625 19.953125 C 15.613281 21.828125 15.59375 23.796875 15.59375 25.859375 C 15.59375 28.109375 15.628906 30.3125 15.703125 32.46875 C 15.785156 34.625 15.945312 36.453125 16.1875 37.953125 C 16.425781 39.453125 16.742188 40.359375 17.140625 40.671875 C 17.335938 40.796875 17.515625 40.859375 17.671875 40.859375 C 18.140625 40.859375 18.601562 40.441406 19.0625 39.609375 C 19.519531 38.773438 19.9375 37.734375 20.3125 36.484375 C 20.6875 35.242188 21.019531 34.007812 21.3125 32.78125 C 21.613281 31.5625 21.863281 30.523438 22.0625 29.671875 C 22.257812 28.828125 22.394531 28.40625 22.46875 28.40625 Z M 22.46875 28.40625 "/></g></g></g><g fill="#2d2e2f" fill-opacity="1"><g transform="translate(221.826818, 30.022513)"><g><path d="M 19.859375 28.9375 C 19.984375 28.625 20.160156 28.46875 20.390625 28.46875 C 20.710938 28.46875 20.875 28.722656 20.875 29.234375 C 20.875 29.429688 20.851562 29.566406 20.8125 29.640625 C 20.414062 31.191406 19.8125 32.828125 19 34.546875 C 18.1875 36.265625 17.21875 37.882812 16.09375 39.40625 C 14.96875 40.925781 13.734375 42.171875 12.390625 43.140625 C 11.046875 44.109375 9.664062 44.59375 8.25 44.59375 C 7.726562 44.59375 7.191406 44.507812 6.640625 44.34375 C 6.085938 44.1875 5.535156 43.929688 4.984375 43.578125 C 3.003906 42.273438 1.578125 40.378906 0.703125 37.890625 C -0.160156 35.398438 -0.59375 32.75 -0.59375 29.9375 C -0.59375 27.375 -0.285156 24.828125 0.328125 22.296875 C 0.941406 19.765625 1.78125 17.488281 2.84375 15.46875 C 3.914062 13.457031 5.140625 11.976562 6.515625 11.03125 C 7.304688 10.476562 8.21875 10.203125 9.25 10.203125 C 10.4375 10.203125 11.539062 10.578125 12.5625 11.328125 C 13.59375 12.078125 14.1875 13.066406 14.34375 14.296875 C 14.382812 14.492188 14.40625 14.695312 14.40625 14.90625 C 14.40625 15.125 14.40625 15.332031 14.40625 15.53125 C 14.40625 17 14.148438 18.515625 13.640625 20.078125 C 13.128906 21.640625 12.4375 23.09375 11.5625 24.4375 C 10.695312 25.78125 9.738281 26.863281 8.6875 27.6875 C 7.632812 28.519531 6.578125 28.9375 5.515625 28.9375 L 4.984375 28.9375 C 4.429688 28.9375 4.15625 29.234375 4.15625 29.828125 L 4.15625 30.1875 C 4.15625 31.207031 4.222656 32.429688 4.359375 33.859375 C 4.492188 35.285156 4.738281 36.6875 5.09375 38.0625 C 5.457031 39.445312 5.929688 40.601562 6.515625 41.53125 C 7.109375 42.46875 7.878906 42.9375 8.828125 42.9375 L 9.015625 42.9375 C 10.078125 42.8125 11.113281 42.3125 12.125 41.4375 C 13.132812 40.570312 14.09375 39.457031 15 38.09375 C 15.90625 36.726562 16.765625 35.242188 17.578125 33.640625 C 18.390625 32.046875 19.148438 30.476562 19.859375 28.9375 Z M 10.734375 12.21875 C 9.265625 13.5625 8.113281 15.003906 7.28125 16.546875 C 6.457031 18.085938 5.847656 19.707031 5.453125 21.40625 C 5.054688 23.101562 4.703125 24.863281 4.390625 26.6875 C 5.609375 25.96875 6.722656 24.914062 7.734375 23.53125 C 8.742188 22.15625 9.554688 20.644531 10.171875 19 C 10.785156 17.363281 11.09375 15.851562 11.09375 14.46875 C 11.09375 13.59375 10.972656 12.84375 10.734375 12.21875 Z M 10.734375 12.21875 "/></g></g></g><g fill="#2d2e2f" fill-opacity="1"><g transform="translate(241.571976, 30.022513)"><g><path d="M 9.609375 41.984375 C 10.472656 41.390625 11.347656 40.367188 12.234375 38.921875 C 13.128906 37.484375 13.960938 35.90625 14.734375 34.1875 C 15.503906 32.46875 16.109375 30.894531 16.546875 29.46875 C 16.660156 29.195312 16.816406 29.0625 17.015625 29.0625 C 17.210938 29.0625 17.3125 29.160156 17.3125 29.359375 L 17.3125 29.40625 C 17.238281 30.320312 16.992188 31.429688 16.578125 32.734375 C 16.160156 34.035156 15.644531 35.378906 15.03125 36.765625 C 14.414062 38.148438 13.757812 39.441406 13.0625 40.640625 C 12.375 41.847656 11.691406 42.828125 11.015625 43.578125 C 10.347656 44.328125 9.738281 44.722656 9.1875 44.765625 L 8.953125 44.765625 C 7.296875 44.765625 5.863281 44.082031 4.65625 42.71875 C 3.445312 41.351562 2.445312 39.484375 1.65625 37.109375 C 0.863281 34.742188 0.28125 32.007812 -0.09375 28.90625 C -0.46875 25.800781 -0.65625 22.507812 -0.65625 19.03125 C -0.65625 15.675781 -0.484375 12.25 -0.140625 8.75 C 0.191406 5.25 0.671875 1.820312 1.296875 -1.53125 C 1.929688 -4.894531 2.710938 -8.050781 3.640625 -11 C 4.578125 -13.945312 5.632812 -16.554688 6.8125 -18.828125 C 8 -21.097656 9.328125 -22.882812 10.796875 -24.1875 C 11.703125 -25.0625 12.726562 -25.5 13.875 -25.5 C 14.707031 -25.5 15.46875 -25.25 16.15625 -24.75 C 16.851562 -24.257812 17.335938 -23.519531 17.609375 -22.53125 C 18.203125 -20.632812 18.5 -18.476562 18.5 -16.0625 C 18.5 -13.144531 18.148438 -10.003906 17.453125 -6.640625 C 16.765625 -3.273438 15.867188 0.113281 14.765625 3.53125 C 13.660156 6.945312 12.484375 10.207031 11.234375 13.3125 C 9.992188 16.414062 8.816406 19.179688 7.703125 21.609375 C 6.597656 24.046875 5.695312 25.972656 5 27.390625 C 4.3125 28.816406 3.96875 29.550781 3.96875 29.59375 C 4.164062 31.09375 4.421875 32.570312 4.734375 34.03125 C 5.054688 35.5 5.472656 36.941406 5.984375 38.359375 C 6.421875 39.546875 6.976562 40.613281 7.65625 41.5625 C 7.96875 42.039062 8.34375 42.28125 8.78125 42.28125 C 9.007812 42.28125 9.285156 42.179688 9.609375 41.984375 Z M 3.328125 21.765625 C 3.328125 21.878906 3.34375 21.992188 3.375 22.109375 C 3.414062 22.234375 3.515625 22.316406 3.671875 22.359375 C 3.867188 22.203125 4.289062 21.441406 4.9375 20.078125 C 5.59375 18.710938 6.375 16.910156 7.28125 14.671875 C 8.195312 12.441406 9.140625 9.929688 10.109375 7.140625 C 11.078125 4.359375 11.972656 1.476562 12.796875 -1.5 C 13.628906 -4.488281 14.300781 -7.425781 14.8125 -10.3125 C 15.332031 -13.195312 15.59375 -15.828125 15.59375 -18.203125 C 15.59375 -20.140625 15.394531 -21.78125 15 -23.125 C 13.8125 -22.457031 12.65625 -21.210938 11.53125 -19.390625 C 10.40625 -17.566406 9.335938 -15.300781 8.328125 -12.59375 C 7.316406 -9.882812 6.4375 -6.847656 5.6875 -3.484375 C 4.9375 -0.128906 4.34375 3.429688 3.90625 7.203125 C 3.476562 10.984375 3.265625 14.828125 3.265625 18.734375 C 3.265625 19.253906 3.265625 19.757812 3.265625 20.25 C 3.265625 20.738281 3.285156 21.242188 3.328125 21.765625 Z M 3.328125 21.765625 "/></g></g></g><g fill="#2d2e2f" fill-opacity="1"><g transform="translate(257.818753, 30.022513)"><g><path d="M 18.625 31.25 C 19.289062 30.65625 19.890625 29.941406 20.421875 29.109375 C 20.960938 28.285156 21.4375 27.46875 21.84375 26.65625 C 22.257812 25.84375 22.613281 25.171875 22.90625 24.640625 C 23.207031 24.109375 23.4375 23.84375 23.59375 23.84375 C 23.789062 23.84375 23.890625 24.019531 23.890625 24.375 C 23.890625 24.800781 23.734375 25.441406 23.421875 26.296875 C 23.109375 27.148438 22.679688 28.066406 22.140625 29.046875 C 21.609375 30.035156 21.023438 30.972656 20.390625 31.859375 C 19.765625 32.753906 19.132812 33.476562 18.5 34.03125 C 18.257812 34.15625 18.039062 34.640625 17.84375 35.484375 C 17.644531 36.335938 17.394531 37.375 17.09375 38.59375 C 16.800781 39.820312 16.390625 41.066406 15.859375 42.328125 C 15.328125 43.597656 14.585938 44.726562 13.640625 45.71875 C 12.734375 46.625 11.742188 47.078125 10.671875 47.078125 C 10.003906 47.078125 9.3125 46.941406 8.59375 46.671875 C 7.332031 46.234375 6.316406 45.359375 5.546875 44.046875 C 4.773438 42.742188 4.191406 41.265625 3.796875 39.609375 C 3.398438 37.953125 3.125 36.390625 2.96875 34.921875 C 2.925781 34.609375 2.828125 34.191406 2.671875 33.671875 C 2.515625 33.160156 2.273438 32.785156 1.953125 32.546875 C 0.960938 31.640625 0.210938 30.4375 -0.296875 28.9375 C -0.804688 27.4375 -1.0625 25.835938 -1.0625 24.140625 C -1.0625 22.273438 -0.765625 20.40625 -0.171875 18.53125 C 0.421875 16.65625 1.269531 15.023438 2.375 13.640625 C 4.15625 11.503906 6.191406 10.4375 8.484375 10.4375 C 10.691406 10.4375 12.6875 11.425781 14.46875 13.40625 C 15.695312 14.75 16.625 16.25 17.25 17.90625 C 17.882812 19.5625 18.320312 21.207031 18.5625 22.84375 C 18.800781 24.488281 18.921875 25.984375 18.921875 27.328125 C 18.921875 29.234375 18.820312 30.539062 18.625 31.25 Z M 3.140625 29.59375 C 3.179688 29.113281 3.210938 28.644531 3.234375 28.1875 C 3.253906 27.738281 3.285156 27.273438 3.328125 26.796875 C 3.328125 26.128906 3.394531 25.46875 3.53125 24.8125 C 3.664062 24.164062 3.851562 23.523438 4.09375 22.890625 C 4.164062 22.648438 4.257812 22.410156 4.375 22.171875 C 4.5 21.941406 4.703125 21.828125 4.984375 21.828125 C 5.773438 21.898438 6.226562 22.289062 6.34375 23 C 6.425781 23.28125 6.46875 23.554688 6.46875 23.828125 C 6.46875 24.109375 6.46875 24.410156 6.46875 24.734375 L 6.46875 32.734375 C 6.46875 33.640625 6.898438 34.15625 7.765625 34.28125 C 8.554688 34.394531 9.304688 34.453125 10.015625 34.453125 C 11.203125 34.453125 12.410156 34.273438 13.640625 33.921875 C 14.347656 33.679688 14.765625 33.1875 14.890625 32.4375 C 15.003906 31.488281 15.097656 30.53125 15.171875 29.5625 C 15.253906 28.59375 15.296875 27.613281 15.296875 26.625 C 15.296875 25.59375 15.238281 24.546875 15.125 23.484375 C 15 22.097656 14.785156 20.710938 14.484375 19.328125 C 14.191406 17.941406 13.710938 16.617188 13.046875 15.359375 C 12.609375 14.453125 12.148438 13.75 11.671875 13.25 C 11.203125 12.757812 10.648438 12.515625 10.015625 12.515625 C 9.148438 12.515625 8.023438 13.066406 6.640625 14.171875 C 5.691406 14.921875 4.867188 15.925781 4.171875 17.1875 C 3.484375 18.457031 2.953125 19.800781 2.578125 21.21875 C 2.203125 22.644531 2.015625 24.007812 2.015625 25.3125 C 2.015625 26.1875 2.101562 27 2.28125 27.75 C 2.457031 28.5 2.742188 29.113281 3.140625 29.59375 Z M 6.765625 35.640625 C 6.835938 37.097656 6.984375 38.476562 7.203125 39.78125 C 7.421875 41.09375 7.785156 42.378906 8.296875 43.640625 C 8.648438 44.472656 8.988281 44.890625 9.3125 44.890625 C 9.550781 44.890625 9.925781 44.628906 10.4375 44.109375 C 11.5 42.960938 12.296875 41.6875 12.828125 40.28125 C 13.367188 38.882812 13.835938 37.394531 14.234375 35.8125 C 13.046875 36.050781 11.878906 36.171875 10.734375 36.171875 C 9.460938 36.171875 8.140625 35.992188 6.765625 35.640625 Z M 6.765625 35.640625 "/></g></g></g></g></g></g></g></g></g></svg>